<svg width="23" height="27" viewBox="0 0 23 27" fill="none" xmlns="http://www.w3.org/2000/svg">
<path d="M22.375 8.0625V25.2812C22.375 25.5459 22.2899 25.7628 22.1201 25.9326C21.9503 26.1024 21.7334 26.1875 21.4688 26.1875H1.53125C1.26663 26.1875 1.04965 26.1024 0.879883 25.9326C0.710112 25.7628 0.625 25.5459 0.625 25.2812V1.71875C0.625 1.45413 0.710112 1.23715 0.879883 1.06738C1.04965 0.897612 1.26663 0.8125 1.53125 0.8125H15.125L22.375 8.0625ZM2.4375 24.375H20.5625V9.875H13.3125V2.625H2.4375V24.375ZM16.9375 20.75H6.0625V18.9375H16.9375V20.75ZM16.9375 15.3125H6.0625V13.5H16.9375V15.3125ZM10.5938 9.875H6.0625V8.0625H10.5938V9.875ZM15.125 8.0625H19.8262L15.125 3.36133V8.0625Z" fill="#606266"/>
</svg>
