<svg width="21" height="27" viewBox="0 0 21 27" fill="none" xmlns="http://www.w3.org/2000/svg">
<path d="M10.5 0.8125C13.3323 0.888021 15.6831 1.8602 17.5518 3.72949C19.4204 5.59878 20.3926 7.94952 20.4688 10.7812C20.4688 15.0104 17.1458 20.1458 10.5 26.1875C3.85417 20.1458 0.53125 15.0104 0.53125 10.7812C0.606771 7.94892 1.57895 5.59818 3.44824 3.72949C5.31753 1.8608 7.66827 0.888625 10.5 0.8125ZM10.5 2.625C8.19631 2.68179 6.27551 3.47974 4.7373 5.01855C3.1991 6.55737 2.40115 8.47817 2.34375 10.7812C2.34375 12.4614 3.01853 14.3823 4.36816 16.5439C5.71787 18.7057 7.76192 21.0991 10.5 23.7236C13.2375 21.0991 15.2815 18.7057 16.6318 16.5439C17.9821 14.3823 18.6569 12.4614 18.6562 10.7812C18.5995 8.47756 17.8015 6.55676 16.2627 5.01855C14.7239 3.48035 12.8031 2.6824 10.5 2.625ZM10.5 6.25C11.7839 6.28806 12.8507 6.7316 13.7002 7.58105C14.5497 8.43051 14.9932 9.4974 15.0312 10.7812C14.9932 12.0651 14.5497 13.132 13.7002 13.9814C12.8507 14.8309 11.7839 15.2744 10.5 15.3125C9.21615 15.2744 8.14926 14.8309 7.2998 13.9814C6.45035 13.132 6.00681 12.0651 5.96875 10.7812C6.00681 9.4974 6.45035 8.43051 7.2998 7.58105C8.14926 6.7316 9.21615 6.28806 10.5 6.25ZM10.5 8.09082C9.72606 8.09082 9.08414 8.34555 8.57422 8.85547C8.0643 9.36539 7.80957 10.0073 7.80957 10.7812C7.80957 11.5552 8.0643 12.1971 8.57422 12.707C9.08414 13.2169 9.72606 13.4813 10.5 13.5C11.2739 13.4813 11.9159 13.2169 12.4258 12.707C12.9357 12.1971 13.1904 11.5552 13.1904 10.7812C13.1904 10.0073 12.9357 9.36539 12.4258 8.85547C11.9159 8.34555 11.2739 8.09082 10.5 8.09082Z" fill="#606266"/>
</svg>
