<svg width="23" height="26" viewBox="0 0 23 26" fill="none" xmlns="http://www.w3.org/2000/svg">
<path d="M17.8438 17.125C19.1276 17.1631 20.1945 17.6066 21.0439 18.4561C21.8934 19.3055 22.3369 20.3724 22.375 21.6562V24.375C22.375 24.6396 22.2899 24.8566 22.1201 25.0264C21.9503 25.1961 21.7334 25.2812 21.4688 25.2812C21.2041 25.2812 20.9872 25.1961 20.8174 25.0264C20.6476 24.8566 20.5625 24.6396 20.5625 24.375V21.6562C20.5438 20.8823 20.2794 20.2404 19.7695 19.7305C19.2596 19.2206 18.6177 18.9562 17.8438 18.9375H5.15625C4.38231 18.9562 3.74039 19.2206 3.23047 19.7305C2.72055 20.2404 2.45623 20.8823 2.4375 21.6562V24.375C2.4375 24.6396 2.35239 24.8566 2.18262 25.0264C2.01285 25.1961 1.79587 25.2812 1.53125 25.2812C1.26662 25.2812 1.04965 25.1961 0.879883 25.0264C0.710112 24.8566 0.625 24.6396 0.625 24.375V21.6562C0.663062 20.3724 1.1066 19.3055 1.95605 18.4561C2.80551 17.6066 3.8724 17.1631 5.15625 17.125H17.8438ZM11.5 0.8125C13.5578 0.869292 15.2666 1.57715 16.626 2.93652C17.9854 4.2959 18.6932 6.00471 18.75 8.0625C18.6932 10.1203 17.9854 11.8291 16.626 13.1885C15.2666 14.5479 13.5578 15.2557 11.5 15.3125C9.44221 15.2557 7.7334 14.5479 6.37402 13.1885C5.01465 11.8291 4.30679 10.1203 4.25 8.0625C4.30679 6.00471 5.01465 4.2959 6.37402 2.93652C7.7334 1.57715 9.44221 0.869292 11.5 0.8125ZM11.5 2.625C9.95152 2.66306 8.66767 3.19171 7.64844 4.21094C6.62921 5.23017 6.10056 6.51402 6.0625 8.0625C6.10056 9.61098 6.62921 10.8948 7.64844 11.9141C8.66767 12.9333 9.95152 13.4619 11.5 13.5C13.0485 13.4619 14.3323 12.9333 15.3516 11.9141C16.3708 10.8948 16.8994 9.61098 16.9375 8.0625C16.8994 6.51402 16.3708 5.23017 15.3516 4.21094C14.3323 3.19171 13.0485 2.66306 11.5 2.625Z" fill="#606266"/>
</svg>
