<svg width="865" height="250" viewBox="0 0 865 250" fill="none" xmlns="http://www.w3.org/2000/svg">
<path d="M118 216.333C172.308 216.333 216.333 172.308 216.333 118C216.333 63.692 172.308 19.6667 118 19.6667C63.692 19.6667 19.6667 63.692 19.6667 118C19.6667 172.308 63.692 216.333 118 216.333Z" stroke="#FF5227" stroke-width="23"/>
<path d="M83.5833 122.917L103.25 142.583L152.417 93.4167" stroke="#FF5227" stroke-width="23" stroke-linecap="round" stroke-linejoin="round"/>
<path d="M353.672 102L353.544 48.368L327.176 92.528H317.96L291.592 49.392V102H272.136V12.4H289.288L322.824 68.08L355.848 12.4H373L373.128 102H353.672ZM426.106 103.024C418.853 103.024 412.325 101.531 406.522 98.544C400.805 95.472 396.325 91.248 393.082 85.872C389.839 80.496 388.218 74.3947 388.218 67.568C388.218 60.7413 389.839 54.64 393.082 49.264C396.325 43.888 400.805 39.7067 406.522 36.72C412.325 33.648 418.853 32.112 426.106 32.112C433.359 32.112 439.845 33.648 445.562 36.72C451.279 39.7067 455.759 43.888 459.002 49.264C462.245 54.64 463.866 60.7413 463.866 67.568C463.866 74.3947 462.245 80.496 459.002 85.872C455.759 91.248 451.279 95.472 445.562 98.544C439.845 101.531 433.359 103.024 426.106 103.024ZM426.106 86.64C431.226 86.64 435.407 84.9333 438.65 81.52C441.978 78.0213 443.642 73.3707 443.642 67.568C443.642 61.7653 441.978 57.1573 438.65 53.744C435.407 50.2453 431.226 48.496 426.106 48.496C420.986 48.496 416.762 50.2453 413.434 53.744C410.106 57.1573 408.442 61.7653 408.442 67.568C408.442 73.3707 410.106 78.0213 413.434 81.52C416.762 84.9333 420.986 86.64 426.106 86.64ZM536.659 33.136V102H518.867V82.288H504.147L491.091 102H469.843L485.587 79.472C480.808 77.5947 477.139 74.9067 474.579 71.408C472.104 67.824 470.867 63.5147 470.867 58.48C470.867 50.3733 473.768 44.144 479.571 39.792C485.459 35.3547 493.523 33.136 503.763 33.136H536.659ZM504.147 49.392C499.88 49.392 496.638 50.16 494.419 51.696C492.286 53.232 491.219 55.7067 491.219 59.12C491.219 62.5333 492.243 65.0507 494.291 66.672C496.424 68.208 499.624 68.976 503.891 68.976H518.867V49.392H504.147Z" fill="#FF5227"/>
<path d="M314.888 225.536C305.587 225.536 297.181 223.531 289.672 219.52C282.248 215.509 276.403 210.005 272.136 203.008C267.955 195.925 265.864 187.989 265.864 179.2C265.864 170.411 267.955 162.517 272.136 155.52C276.403 148.437 282.248 142.891 289.672 138.88C297.181 134.869 305.587 132.864 314.888 132.864C324.189 132.864 332.552 134.869 339.976 138.88C347.4 142.891 353.245 148.437 357.512 155.52C361.779 162.517 363.912 170.411 363.912 179.2C363.912 187.989 361.779 195.925 357.512 203.008C353.245 210.005 347.4 215.509 339.976 219.52C332.552 223.531 324.189 225.536 314.888 225.536ZM314.888 207.872C320.179 207.872 324.957 206.677 329.224 204.288C333.491 201.813 336.819 198.4 339.208 194.048C341.683 189.696 342.92 184.747 342.92 179.2C342.92 173.653 341.683 168.704 339.208 164.352C336.819 160 333.491 156.629 329.224 154.24C324.957 151.765 320.179 150.528 314.888 150.528C309.597 150.528 304.819 151.765 300.552 154.24C296.285 156.629 292.915 160 290.44 164.352C288.051 168.704 286.856 173.653 286.856 179.2C286.856 184.747 288.051 189.696 290.44 194.048C292.915 198.4 296.285 201.813 300.552 204.288C304.819 206.677 309.597 207.872 314.888 207.872ZM440.302 155.136V224H420.334V198.4C414.531 201.301 408.131 202.752 401.134 202.752C391.833 202.752 384.793 200.661 380.014 196.48C375.321 192.213 372.974 185.643 372.974 176.768V155.136H392.942V175.488C392.942 179.669 394.009 182.699 396.142 184.576C398.361 186.453 401.518 187.392 405.614 187.392C410.819 187.392 415.726 186.283 420.334 184.064V155.136H440.302ZM493.779 209.024C497.363 209.024 500.52 208.512 503.251 207.488C506.067 206.379 508.67 204.672 511.059 202.368L521.683 213.888C515.198 221.312 505.726 225.024 493.267 225.024C485.502 225.024 478.632 223.531 472.659 220.544C466.686 217.472 462.078 213.248 458.835 207.872C455.592 202.496 453.971 196.395 453.971 189.568C453.971 182.827 455.55 176.768 458.707 171.392C461.95 165.931 466.344 161.707 471.891 158.72C477.523 155.648 483.838 154.112 490.835 154.112C497.406 154.112 503.379 155.52 508.755 158.336C514.131 161.067 518.398 165.077 521.555 170.368C524.798 175.573 526.419 181.76 526.419 188.928L475.475 198.784C476.926 202.197 479.187 204.757 482.259 206.464C485.416 208.171 489.256 209.024 493.779 209.024ZM490.835 169.216C485.8 169.216 481.704 170.837 478.547 174.08C475.39 177.323 473.726 181.803 473.555 187.52L507.091 180.992C506.152 177.408 504.232 174.549 501.331 172.416C498.43 170.283 494.931 169.216 490.835 169.216ZM575.553 154.112C582.892 154.112 589.292 155.563 594.753 158.464C600.214 161.365 604.438 165.504 607.425 170.88C610.412 176.256 611.905 182.528 611.905 189.696C611.905 196.693 610.497 202.88 607.681 208.256C604.865 213.547 600.897 217.685 595.777 220.672C590.657 223.573 584.769 225.024 578.113 225.024C569.324 225.024 562.454 222.251 557.505 216.704V248.832H537.537V189.824C537.537 182.741 539.116 176.512 542.273 171.136C545.43 165.76 549.868 161.579 555.585 158.592C561.302 155.605 567.958 154.112 575.553 154.112ZM574.657 208.64C579.862 208.64 584.086 206.891 587.329 203.392C590.572 199.893 592.193 195.328 592.193 189.696C592.193 183.979 590.572 179.371 587.329 175.872C584.086 172.288 579.862 170.496 574.657 170.496C569.452 170.496 565.228 172.245 561.985 175.744C558.828 179.243 557.249 183.851 557.249 189.568C557.249 195.285 558.828 199.893 561.985 203.392C565.142 206.891 569.366 208.64 574.657 208.64ZM660.279 209.024C663.863 209.024 667.02 208.512 669.751 207.488C672.567 206.379 675.17 204.672 677.559 202.368L688.183 213.888C681.698 221.312 672.226 225.024 659.767 225.024C652.002 225.024 645.132 223.531 639.159 220.544C633.186 217.472 628.578 213.248 625.335 207.872C622.092 202.496 620.471 196.395 620.471 189.568C620.471 182.827 622.05 176.768 625.207 171.392C628.45 165.931 632.844 161.707 638.391 158.72C644.023 155.648 650.338 154.112 657.335 154.112C663.906 154.112 669.879 155.52 675.255 158.336C680.631 161.067 684.898 165.077 688.055 170.368C691.298 175.573 692.919 181.76 692.919 188.928L641.975 198.784C643.426 202.197 645.687 204.757 648.759 206.464C651.916 208.171 655.756 209.024 660.279 209.024ZM657.335 169.216C652.3 169.216 648.204 170.837 645.047 174.08C641.89 177.323 640.226 181.803 640.055 187.52L673.591 180.992C672.652 177.408 670.732 174.549 667.831 172.416C664.93 170.283 661.431 169.216 657.335 169.216ZM776.997 155.136V212.48C776.997 225.109 773.712 234.496 767.141 240.64C760.57 246.784 750.97 249.856 738.341 249.856C731.685 249.856 725.37 249.045 719.397 247.424C713.424 245.803 708.474 243.456 704.549 240.384L712.485 226.048C715.386 228.437 719.056 230.315 723.493 231.68C727.93 233.131 732.368 233.856 736.805 233.856C743.717 233.856 748.794 232.277 752.037 229.12C755.365 226.048 757.029 221.355 757.029 215.04V212.096C751.824 217.813 744.57 220.672 735.269 220.672C728.954 220.672 723.152 219.307 717.861 216.576C712.656 213.76 708.517 209.835 705.445 204.8C702.373 199.765 700.837 193.963 700.837 187.392C700.837 180.821 702.373 175.019 705.445 169.984C708.517 164.949 712.656 161.067 717.861 158.336C723.152 155.52 728.954 154.112 735.269 154.112C745.253 154.112 752.848 157.397 758.053 163.968V155.136H776.997ZM739.237 204.288C744.528 204.288 748.837 202.752 752.165 199.68C755.578 196.523 757.285 192.427 757.285 187.392C757.285 182.357 755.578 178.304 752.165 175.232C748.837 172.075 744.528 170.496 739.237 170.496C733.946 170.496 729.594 172.075 726.181 175.232C722.768 178.304 721.061 182.357 721.061 187.392C721.061 192.427 722.768 196.523 726.181 199.68C729.594 202.752 733.946 204.288 739.237 204.288ZM827.841 225.92C816.918 225.92 808.641 223.488 803.009 218.624C797.462 213.76 794.689 206.592 794.689 197.12V155.136H814.529V178.432C816.662 176.896 819.393 175.701 822.721 174.848C826.134 173.995 829.932 173.568 834.113 173.568C842.732 173.568 849.473 175.701 854.337 179.968C859.201 184.235 861.633 190.464 861.633 198.656C861.633 207.445 858.604 214.187 852.545 218.88C846.572 223.573 838.337 225.92 827.841 225.92ZM827.841 211.84C832.108 211.84 835.393 210.688 837.697 208.384C840.086 206.08 841.281 202.965 841.281 199.04C841.281 195.285 840.129 192.341 837.825 190.208C835.606 188.075 832.406 187.008 828.225 187.008C825.153 187.008 822.422 187.563 820.033 188.672C817.644 189.781 815.809 191.36 814.529 193.408V199.04C814.529 203.051 815.681 206.208 817.985 208.512C820.374 210.731 823.66 211.84 827.841 211.84Z" fill="#FF5227"/>
</svg>
